<?xml version="1.0" standalone="no"?>
<!DOCTYPE svg PUBLIC "-//W3C//DTD SVG 20010904//EN"
 "http://www.w3.org/TR/2001/REC-SVG-20010904/DTD/svg10.dtd">
<svg version="1.0" xmlns="http://www.w3.org/2000/svg"
 width="500.000000pt" height="500.000000pt" viewBox="0 0 500.000000 500.000000"
 preserveAspectRatio="xMidYMid meet">
<metadata>
Created by potrace 1.14, written by Peter Selinger 2001-2017
</metadata>
<g transform="translate(0.000000,500.000000) scale(0.100000,-0.100000)"
fill="#000000" stroke="none">
<path d="M1324 4165 c-104 -33 -199 -100 -316 -224 -42 -44 -74 -81 -71 -81 4
0 -1 -8 -9 -17 -25 -29 -127 -181 -154 -232 -14 -25 -35 -62 -46 -81 -25 -42
-132 -255 -128 -255 1 0 -10 -22 -24 -49 -14 -27 -26 -55 -26 -62 0 -8 -4 -14
-10 -14 -5 0 -9 -3 -8 -7 1 -5 -3 -18 -10 -30 -7 -13 -9 -23 -5 -23 4 0 1 -6
-7 -13 -8 -7 -15 -16 -15 -22 0 -13 -68 -186 -71 -182 -6 5 30 132 38 135 4 2
6 8 3 12 -7 11 15 101 24 96 3 -2 7 8 7 22 2 36 12 74 21 81 5 3 9 15 10 26 0
11 4 31 8 45 4 14 9 37 12 53 3 15 10 27 15 27 5 0 7 4 3 9 -3 5 -1 12 5 16 6
4 8 11 5 16 -4 5 -3 14 1 21 4 7 9 25 11 42 2 16 8 34 13 41 5 7 8 14 5 17 -3
2 0 19 5 37 8 28 6 36 -15 57 -27 27 -33 28 -70 14 -26 -10 -63 -40 -57 -47 2
-2 -11 -40 -28 -84 -17 -44 -36 -102 -42 -129 -6 -28 -14 -50 -17 -50 -5 0
-12 -47 -14 -102 -1 -10 -4 -18 -7 -18 -3 0 -5 -22 -4 -50 0 -27 -2 -50 -5
-50 -3 0 -6 -30 -6 -67 0 -38 -3 -86 -7 -108 -4 -22 -10 -53 -13 -70 -3 -16
-10 -50 -15 -75 -9 -40 -46 -222 -56 -274 -2 -11 -9 -23 -16 -28 -11 -6 -11
-8 0 -8 10 0 9 -6 -2 -29 -8 -15 -17 -39 -20 -52 -13 -64 -50 -178 -56 -174
-3 2 -6 -6 -6 -18 0 -34 -15 -97 -23 -93 -3 2 -7 -8 -7 -22 -1 -15 -4 -49 -7
-77 -3 -27 -4 -58 -1 -67 7 -24 40 -23 57 2 8 11 17 17 22 12 5 -4 5 -2 1 5
-8 14 24 84 36 77 4 -3 5 2 2 11 -4 8 -2 21 4 28 5 6 12 25 16 40 4 17 11 25
18 21 7 -4 8 -3 4 4 -8 14 3 64 14 57 4 -2 5 7 2 22 -4 19 -2 24 8 18 8 -5 11
-4 6 3 -3 6 5 55 19 109 15 54 28 105 30 113 2 8 4 16 5 18 3 3 7 19 9 33 0 5
6 7 13 3 7 -4 8 -3 4 5 -9 13 22 113 33 107 4 -3 7 5 7 17 0 30 25 107 33 102
4 -2 7 6 8 18 1 28 25 90 38 99 6 4 7 8 3 8 -7 0 14 60 47 135 7 17 16 38 19
48 3 10 10 16 15 13 5 -3 7 4 3 16 -3 11 -1 19 4 16 5 -4 10 4 10 15 2 26 64
159 79 169 5 4 7 8 3 8 -24 0 215 416 265 462 10 9 18 20 18 25 1 14 86 112
93 106 3 -4 6 -1 6 6 0 17 70 82 140 130 30 21 57 39 60 39 3 1 23 8 45 17 79
34 151 35 199 3 35 -23 90 -113 80 -129 -3 -5 -1 -9 4 -9 8 0 35 -97 31 -116
-1 -5 0 -11 1 -14 5 -9 10 -62 16 -166 l6 -101 -49 -6 c-68 -9 -72 -11 -127
-35 -27 -12 -51 -22 -53 -22 -2 0 -25 -14 -51 -32 -101 -69 -188 -183 -228
-299 -30 -84 -27 -308 5 -409 38 -122 116 -259 204 -355 9 -10 16 -24 14 -30
-4 -13 -79 -55 -88 -49 -4 2 -12 -3 -19 -11 -7 -8 -18 -15 -25 -15 -30 0 -438
-207 -605 -308 -365 -220 -576 -424 -582 -561 -3 -86 54 -125 187 -127 50 -1
97 2 105 6 8 4 29 10 45 13 40 7 121 35 168 59 21 10 43 16 49 12 7 -4 8 -3 4
4 -4 7 -2 12 4 12 15 0 224 140 270 180 118 104 206 199 280 300 30 41 57 77
60 80 7 7 26 39 51 88 13 23 27 42 32 42 6 0 7 3 4 6 -4 4 2 19 11 33 10 14
26 45 36 68 11 23 22 40 26 38 4 -3 8 1 7 8 -1 31 4 48 12 43 5 -3 8 2 7 12
-2 31 21 18 109 -63 117 -107 122 -111 204 -180 111 -94 351 -342 420 -432 34
-46 66 -83 70 -83 5 0 21 19 36 43 71 106 247 299 395 432 25 23 106 95 180
161 368 327 484 526 476 809 -4 125 -5 131 -41 217 -15 34 -27 69 -27 75 -1 7
-3 11 -6 9 -2 -3 -20 16 -40 42 -45 60 -88 97 -165 145 -85 52 -145 69 -263
74 -118 6 -216 -16 -312 -69 -69 -38 -179 -148 -207 -206 -11 -23 -22 -42 -25
-42 -3 0 -18 23 -35 51 -39 66 -113 142 -182 186 -62 40 -181 82 -230 83 -35
0 -33 -3 -37 75 0 17 2 38 7 48 4 9 4 17 -1 17 -4 0 -8 15 -8 33 -1 57 -14
152 -29 211 -8 32 -12 62 -9 68 4 6 2 8 -4 4 -6 -3 -14 3 -17 15 -13 41 -60
97 -105 125 -37 23 -58 28 -120 30 -41 1 -93 -4 -116 -11z m-16 -1916 c-15
-45 -78 -159 -87 -159 -4 0 -8 -6 -8 -13 0 -33 -155 -237 -261 -344 -65 -66
-204 -183 -217 -183 -3 0 -14 -8 -25 -17 -10 -10 -36 -27 -57 -38 -21 -10 -49
-27 -63 -36 -34 -22 -185 -78 -229 -85 -20 -3 -39 -8 -44 -11 -4 -2 -7 2 -7 9
0 10 -2 10 -8 1 -10 -16 -94 -15 -85 1 4 7 1 7 -7 -1 -16 -15 -63 7 -85 40
-40 62 34 184 196 320 31 26 61 47 66 47 6 0 16 7 23 15 16 19 98 75 110 75 4
0 10 4 12 8 4 11 173 112 187 112 6 0 11 3 11 8 0 4 10 12 23 18 12 6 85 42
162 81 196 99 397 193 403 189 1 -2 -3 -18 -10 -37z"/>
<path d="M4370 4165 c-114 -20 -121 -21 -200 -46 -41 -12 -77 -23 -80 -24 -3
-1 -18 -7 -33 -13 -16 -7 -31 -12 -34 -12 -8 0 -129 -56 -198 -92 -412 -213
-568 -417 -530 -693 4 -27 11 -57 16 -66 4 -9 5 -19 2 -23 -3 -3 -1 -6 5 -6 7
0 12 -6 12 -14 0 -14 63 -140 82 -163 6 -7 8 -13 4 -13 -3 0 2 -9 12 -19 37
-42 74 -95 70 -102 -2 -2 -1 -3 1 -2 2 1 28 -28 58 -65 31 -37 59 -69 64 -70
5 -2 9 -8 9 -14 0 -6 8 -18 18 -27 9 -9 30 -32 46 -51 29 -36 101 -119 148
-172 15 -17 25 -35 21 -41 -3 -6 -2 -7 4 -4 13 8 126 -140 117 -155 -4 -6 -3
-8 3 -5 9 6 58 -55 65 -81 2 -5 -22 -29 -52 -53 -30 -24 -68 -56 -85 -70 -174
-151 -227 -200 -335 -309 -236 -237 -314 -374 -245 -428 20 -16 36 -19 78 -16
65 5 98 10 117 17 8 3 33 11 55 18 37 11 60 20 155 63 48 21 105 54 165 95 28
19 55 34 62 34 7 0 11 3 10 6 -3 9 147 155 156 153 5 -2 6 2 2 8 -3 6 3 22 14
36 25 32 61 126 61 160 0 16 4 23 12 18 7 -5 8 -3 3 7 -5 7 -10 29 -11 49 -2
30 -16 74 -49 153 -5 12 -3 17 9 17 9 0 16 4 16 8 0 13 59 44 70 37 6 -4 9 -2
8 3 -3 9 65 62 78 62 3 0 24 13 47 29 46 31 130 75 136 72 2 -2 7 2 10 7 3 6
42 27 86 47 44 20 98 45 120 55 71 33 129 56 192 76 60 18 63 21 63 51 0 42
-25 67 -59 57 -14 -4 -36 -8 -48 -8 -13 -1 -23 -4 -23 -8 0 -6 -27 -18 -55
-24 -5 -1 -32 -13 -60 -25 -27 -13 -52 -23 -55 -24 -12 -1 -183 -93 -273 -147
-55 -32 -104 -55 -110 -51 -7 3 -9 3 -5 -2 7 -8 -96 -87 -137 -106 -11 -5 -29
-16 -41 -24 -20 -15 -23 -12 -82 67 -34 46 -73 97 -87 113 -14 17 -42 50 -63
74 -20 23 -46 53 -57 65 -11 12 -45 50 -75 85 -30 35 -60 69 -66 75 -10 11
-159 201 -192 246 -10 14 -25 40 -33 58 -8 17 -17 32 -20 32 -3 0 -22 35 -42
78 -78 173 -78 313 0 452 32 56 175 198 209 206 13 3 24 10 24 14 0 10 71 53
88 53 6 0 12 4 12 9 0 4 5 8 12 8 6 0 19 7 29 16 9 8 23 17 31 18 11 3 73 29
133 57 41 19 105 38 105 31 0 -4 4 -2 8 4 9 15 109 47 121 40 5 -4 11 0 14 6
3 10 7 10 21 -1 14 -12 16 -12 11 1 -5 11 12 18 72 32 300 65 463 36 528 -93
20 -40 27 -153 13 -214 -5 -23 -11 -49 -13 -57 -20 -92 -111 -287 -208 -442
-71 -115 -83 -136 -73 -127 4 4 20 -6 37 -22 30 -28 30 -28 62 -10 18 10 42
32 53 49 12 17 25 28 29 24 5 -4 5 -2 1 5 -8 15 28 76 39 65 5 -4 5 -2 2 4 -4
7 8 45 27 85 71 155 125 342 129 445 1 24 5 40 11 37 5 -4 6 -1 0 8 -4 8 -10
23 -11 34 -10 77 -17 103 -39 144 -39 70 -113 126 -199 151 -60 17 -240 20
-325 5z m-264 -2081 c-3 -8 -2 -12 3 -9 5 3 12 -3 16 -14 44 -141 -4 -290
-138 -424 -143 -143 -351 -246 -532 -264 -75 -7 -90 5 -70 55 8 17 19 32 25
32 6 0 9 4 5 9 -3 5 0 15 7 23 7 7 26 31 43 53 48 65 195 206 207 199 6 -4 8
-3 5 3 -8 12 18 36 171 161 65 53 119 89 125 86 7 -4 9 -4 5 1 -8 8 6 22 56
59 14 10 34 25 43 32 24 18 36 17 29 -2z"/>
<path d="M1186 3918 c3 -5 10 -6 15 -3 13 9 11 12 -6 12 -8 0 -12 -4 -9 -9z"/>
<path d="M1550 3679 c0 -5 5 -7 10 -4 6 3 10 8 10 11 0 2 -4 4 -10 4 -5 0 -10
-5 -10 -11z"/>
<path d="M3835 2360 c-3 -5 -1 -10 4 -10 6 0 11 5 11 10 0 6 -2 10 -4 10 -3 0
-8 -4 -11 -10z"/>
<path d="M4316 2173 c-6 -14 -5 -15 5 -6 7 7 10 15 7 18 -3 3 -9 -2 -12 -12z"/>
</g>
</svg>
